<?xml version="1.0" encoding="UTF-8"?>
<svg id="_レイヤー_1" data-name="レイヤー 1" xmlns="http://www.w3.org/2000/svg" viewBox="0 0 114.26 133.48">
  <defs>
    <style>
      .cls-1 {
        fill: #ffe100;
      }

      .cls-1, .cls-2, .cls-3, .cls-4, .cls-5 {
        stroke: #231815;
      }

      .cls-1, .cls-2, .cls-3, .cls-4, .cls-5, .cls-6 {
        stroke-miterlimit: 10;
        stroke-width: 2.19px;
      }

      .cls-2 {
        fill: #0b308e;
      }

      .cls-3 {
        fill: #c30d23;
      }

      .cls-4 {
        fill: #c8bb9b;
      }

      .cls-5, .cls-6 {
        fill: none;
      }

      .cls-6 {
        stroke: #717071;
      }
    </style>
  </defs>
  <polygon class="cls-6" points="105.42 25.7 105.42 107.65 113.17 107.65 113.17 114.12 79.21 114.12 79.21 107.65 86.95 107.65 86.95 25.7 79.21 25.7 79.21 19.22 113.17 19.22 113.17 25.7 105.42 25.7"/>
  <polygon class="cls-4" points="2.62 66.42 14.75 77.08 14.37 77.32 2.24 66.67 2.62 66.42"/>
  <polyline class="cls-3" points="76.75 .82 88.88 11.47 26.37 66.46 14.25 55.81 18.17 52.37 76.75 .82"/>
  <polygon class="cls-1" points="26.87 66.42 14.75 77.08 2.62 66.42 14.75 55.77 26.87 66.42"/>
  <polyline class="cls-5" points="13.87 55.44 14.25 55.77 2.12 66.42 1.75 66.1"/>
  <polygon class="cls-5" points="14.25 77.12 18.17 80.56 18.17 113.34 1.09 113.34 1.09 20.08 18.17 20.08 18.17 52.37 14.25 55.81 26.37 66.46 14.25 77.12"/>
  <polygon class="cls-2" points="88.88 121.37 76.75 132.03 18.17 80.56 14.25 77.12 26.37 66.46 88.88 121.37"/>
</svg>